# File created by Blade
# Date/Time:  Wed Sep 24 19:25:39 2014
# Frame Rate: 120.000 fps
#------------------------------------------------------
:FULLY-SPECIFIED
:DEGREES
2655
root -15.421181 32.406650 -4.168434 12.547546 43.972068 0.027270
Spine -14.015398 4.982853 12.229467
Head 11.820583 1.776100 -2.441619
LeftShoulder -13.473052 24.090496 5.147655
LeftArm 23.442803 34.234540 -70.209315
LeftForeArm 6.664283 -0.000000 30.106158
LeftHand -25.718817 0.000000 -5.503170
LeftHandThumb1 -26.253704 0.000000 33.147579
RightShoulder -18.615548 11.894125 -32.368308
RightArm -9.125137 24.323952 53.848247
RightForeArm 7.982452 -0.000000 121.658135
RightHand -13.514556 -0.000000 0.286967
RightHandThumb1 -24.326973 -0.000000 -32.862282
LeftUpLeg -11.438864 45.008053 8.788148
LeftLeg 108.954155 -0.000000 -0.000000
LeftFoot 36.272017 18.231579 -22.198216
LeftToeBase 25.520610 -0.000000 -0.000000
RightUpLeg -11.997582 -9.728718 10.936025
RightLeg 4.701482 -0.000000 -0.000000
RightFoot -12.094652 -19.954981 -6.428536
RightToeBase 0.811378 -0.000000 -0.000000
2656
root -15.404249 32.414871 -4.139472 12.695468 43.784934 0.067441
Spine -14.477162 5.128142 12.076287
Head 12.403071 1.732621 -2.267491
LeftShoulder -13.604308 24.274481 5.193934
LeftArm 23.372258 34.454658 -70.151363
LeftForeArm 6.562436 0.000000 29.963926
LeftHand -25.734446 -0.000000 -5.724098
LeftHandThumb1 -26.253704 0.000000 33.147579
RightShoulder -18.703501 11.705056 -32.240516
RightArm -9.001323 24.186831 53.787243
RightForeArm 7.845988 -0.000000 121.661399
RightHand -13.611014 -0.000000 0.357605
RightHandThumb1 -24.326973 -0.000000 -32.862282
LeftUpLeg -10.770268 45.393187 9.360696
LeftLeg 110.517689 -0.000000 -0.000000
LeftFoot 36.682791 17.974644 -21.924103
LeftToeBase 24.938866 -0.000000 -0.000000
RightUpLeg -11.786681 -9.694460 10.895438
RightLeg 4.164055 -0.000000 -0.000000
RightFoot -11.919980 -19.668430 -6.355040
RightToeBase 0.817756 -0.000000 -0.000000
2657
root -15.382702 32.420612 -4.115554 12.898489 43.638971 0.177368
Spine -14.977013 5.220316 11.892946
Head 13.000944 1.685316 -2.105969
LeftShoulder -13.722274 24.473413 5.255678
LeftArm 23.289719 34.649459 -70.131669
LeftForeArm 6.491488 -0.000000 29.831699
LeftHand -25.756402 -0.000000 -5.787861
LeftHandThumb1 -26.253704 0.000000 33.147579
RightShoulder -18.740283 11.544601 -32.144755
RightArm -8.935228 24.072444 53.720042
RightForeArm 7.775020 -0.000000 121.652441
RightHand -13.700805 -0.000000 0.269297
RightHandThumb1 -24.326973 -0.000000 -32.862282
LeftUpLeg -10.099050 45.634213 9.880391
LeftLeg 112.137292 -0.000000 -0.000000
LeftFoot 36.825003 17.803503 -21.937771
LeftToeBase 25.289822 -0.000000 -0.000000
RightUpLeg -11.622995 -9.797768 10.840927
RightLeg 3.677373 -0.000000 -0.000000
RightFoot -11.764268 -19.430275 -6.452254
RightToeBase 0.891608 -0.000000 -0.000000
2658
root -15.363987 32.425768 -4.084248 13.040376 43.475858 0.238473
Spine -15.447479 5.339588 11.730575
Head 13.579737 1.619594 -1.948978
LeftShoulder -13.824948 24.683841 5.305746
LeftArm 23.169490 34.787082 -70.117183
LeftForeArm 6.498983 -0.000000 29.783857
LeftHand -25.725818 0.000000 -5.864064
LeftHandThumb1 -26.253704 0.000000 33.147579
RightShoulder -18.835246 11.384227 -32.051747
RightArm -8.852427 23.977883 53.668947
RightForeArm 7.801345 -0.000000 121.626505
RightHand -13.731303 -0.000000 0.482259
RightHandThumb1 -24.326973 -0.000000 -32.862282
LeftUpLeg -9.299642 45.847697 10.533214
LeftLeg 113.745669 -0.000000 -0.000000
LeftFoot 37.465577 17.130042 -21.061474
LeftToeBase 23.985752 -0.000000 -0.000000
RightUpLeg -11.419842 -9.789627 10.798467
RightLeg 3.200226 -0.000000 -0.000000
RightFoot -11.583321 -19.156542 -6.521290
RightToeBase 0.516530 -0.000000 -0.000000
2659
root -15.343884 32.430651 -4.054509 13.202889 43.365745 0.306474
Spine -15.954323 5.422199 11.574323
Head 14.138114 1.514714 -1.819073
LeftShoulder -13.952737 24.909415 5.347724
LeftArm 23.121307 34.991022 -70.039121
LeftForeArm 6.424221 -0.000000 29.728710
LeftHand -25.722669 -0.000000 -5.968597
LeftHandThumb1 -26.253704 0.000000 33.147579
RightShoulder -18.909169 11.218200 -31.926461
RightArm -8.787369 23.880576 53.514677
RightForeArm 7.771663 -0.000000 121.593889
RightHand -13.732847 0.000000 0.469352
RightHandThumb1 -24.326973 -0.000000 -32.862282
LeftUpLeg -8.489785 45.883401 11.194674
LeftLeg 115.340948 -0.000000 -0.000000
LeftFoot 37.542782 17.079098 -21.175059
LeftToeBase 24.273862 -0.000000 -0.000000
RightUpLeg -11.213494 -9.714726 10.749825
RightLeg 2.664925 -0.000000 -0.000000
RightFoot -11.341182 -19.100821 -6.605193
RightToeBase 0.499984 -0.000000 -0.000000
2660
root -15.324153 32.434209 -4.025015 13.391819 43.265239 0.388347
Spine -16.499459 5.521224 11.395329
Head 14.726334 1.435294 -1.649112
LeftShoulder -14.085862 25.153113 5.393466
LeftArm 23.127090 35.210535 -69.913751
LeftForeArm 6.334578 0.000000 29.663927
LeftHand -25.639075 -0.000000 -6.149918
LeftHandThumb1 -26.253704 0.000000 33.147579
RightShoulder -19.003103 10.945640 -31.810022
RightArm -8.640515 23.830089 53.450148
RightForeArm 7.704681 -0.000000 121.546626
RightHand -13.707789 -0.000000 0.458166
RightHandThumb1 -24.326973 -0.000000 -32.862282
LeftUpLeg -7.673448 45.789084 11.838042
LeftLeg 116.899559 -0.000000 -0.000000
LeftFoot 37.689662 16.970431 -21.254092
LeftToeBase 25.275883 -0.000000 -0.000000
RightUpLeg -11.133803 -9.750757 10.701009
RightLeg 2.368129 -0.000000 -0.000000
RightFoot -11.288291 -18.884229 -6.552141
RightToeBase 0.471069 -0.000000 -0.000000
2661
root -15.305135 32.435465 -3.993996 13.508436 43.201822 0.444335
Spine -16.948935 5.573367 11.263841
Head 15.226539 1.339261 -1.505186
LeftShoulder -14.192519 25.325484 5.419223
LeftArm 23.012001 35.321384 -69.883962
LeftForeArm 6.291815 -0.000000 29.670372
LeftHand -25.595157 -0.000000 -6.277568
LeftHandThumb1 -26.253704 0.000000 33.147579
RightShoulder -19.091445 10.827106 -31.710838
RightArm -8.628414 23.764332 53.272668
RightForeArm 7.771341 0.000000 121.528574
RightHand -13.775527 -0.000000 0.435502
RightHandThumb1 -24.326973 -0.000000 -32.862282
LeftUpLeg -6.757824 45.649010 12.565690
LeftLeg 118.414109 -0.000000 -0.000000
LeftFoot 38.369979 16.155868 -20.263299
LeftToeBase 23.798033 -0.000000 -0.000000
RightUpLeg -11.029660 -9.808416 10.681217
RightLeg 2.115617 -0.000000 -0.000000
RightFoot -11.210140 -18.842593 -6.583865
RightToeBase 0.864180 -0.000000 -0.000000
2662
root -15.291077 32.439297 -3.969712 13.705130 43.181382 0.503352
Spine -17.491541 5.614094 11.155382
Head 15.702178 1.283875 -1.448083
LeftShoulder -14.281433 25.530156 5.402101
LeftArm 22.890847 35.373319 -69.842825
LeftForeArm 6.280106 -0.000000 29.724042
LeftHand -25.538689 -0.000000 -6.424444
LeftHandThumb1 -26.253704 0.000000 33.147579
RightShoulder -19.214475 10.609104 -31.639643
RightArm -8.518159 23.765830 53.149418
RightForeArm 7.864130 0.000000 121.486905
RightHand -13.747311 -0.000000 0.672321
RightHandThumb1 -24.326973 -0.000000 -32.862282
LeftUpLeg -5.991080 45.337422 13.182791
LeftLeg 119.931992 -0.000000 -0.000000
LeftFoot 38.617980 15.773762 -20.135968
LeftToeBase 23.437586 -0.000000 -0.000000
RightUpLeg -11.001030 -9.810329 10.664812
RightLeg 1.835588 -0.000000 -0.000000
RightFoot -11.072025 -18.764963 -6.636633
RightToeBase 0.795220 -0.000000 -0.000000
2663
root -15.275104 32.442531 -3.946692 13.909688 43.157112 0.582226
Spine -18.010274 5.660438 11.018805
Head 16.138066 1.194976 -1.351151
LeftShoulder -14.397313 25.673190 5.393508
LeftArm 22.735607 35.433070 -69.828197
LeftForeArm 6.287766 -0.000000 29.775586
LeftHand -25.456298 -0.000000 -6.531357
LeftHandThumb1 -26.253704 0.000000 33.147579
RightShoulder -19.307616 10.455500 -31.536062
RightArm -8.528482 23.738618 52.898507
RightForeArm 7.865095 -0.000000 121.485333
RightHand -13.753961 -0.000000 0.540412
RightHandThumb1 -24.326973 -0.000000 -32.862282
LeftUpLeg -5.210574 44.928032 13.749336
LeftLeg 121.362856 -0.000000 -0.000000
LeftFoot 38.727109 15.524015 -20.063526
LeftToeBase 23.738361 -0.000000 -0.000000
RightUpLeg -10.991164 -9.757289 10.625503
RightLeg 1.596587 -0.000000 -0.000000
RightFoot -10.976079 -18.697014 -6.630891
RightToeBase 0.380328 -0.000000 -0.000000
2664
root -15.259600 32.445579 -3.924278 14.079539 43.128412 0.651122
Spine -18.473987 5.694980 10.906138
Head 16.544898 1.146939 -1.263427
LeftShoulder -14.558510 25.873466 5.336924
LeftArm 22.698234 35.437043 -69.753797
LeftForeArm 6.366149 -0.000000 29.789888
LeftHand -25.307242 -0.000000 -6.761879
LeftHandThumb1 -26.253704 0.000000 33.147579
RightShoulder -19.391303 10.309614 -31.427107
RightArm -8.510779 23.781804 52.660417
RightForeArm 7.905248 -0.000000 121.497535
RightHand -13.873319 -0.000000 0.594475
RightHandThumb1 -24.326973 -0.000000 -32.862282
LeftUpLeg -4.389546 44.499215 14.345389
LeftLeg 122.715868 -0.000000 -0.000000
LeftFoot 38.966272 15.250673 -19.733595
LeftToeBase 23.667827 -0.000000 -0.000000
RightUpLeg -10.986316 -9.698304 10.581191
RightLeg 1.428906 -0.000000 -0.000000
RightFoot -10.917534 -18.773630 -6.603006
RightToeBase 0.743572 -0.000000 -0.000000
2665
root -15.243790 32.451108 -3.909723 14.333531 43.111337 0.780302
Spine -18.987804 5.720696 10.747735
Head 16.958492 1.077073 -1.191612
LeftShoulder -14.680912 26.083087 5.277885
LeftArm 22.661813 35.433316 -69.678205
LeftForeArm 6.328373 -0.000000 29.817186
LeftHand -25.300870 -0.000000 -6.807314
LeftHandThumb1 -26.253704 0.000000 33.147579
RightShoulder -19.456502 10.137178 -31.311961
RightArm -8.494638 23.870343 52.423439
RightForeArm 7.931686 0.000000 121.501176
RightHand -13.872745 -0.000000 0.772683
RightHandThumb1 -24.326973 -0.000000 -32.862282
LeftUpLeg -3.724770 43.967123 14.753104
LeftLeg 123.963884 -0.000000 -0.000000
LeftFoot 39.178138 15.116163 -19.615521
LeftToeBase 23.770497 -0.000000 -0.000000
RightUpLeg -11.091904 -9.702881 10.508898
RightLeg 1.369614 -0.000000 -0.000000
RightFoot -10.896759 -18.751023 -6.569371
RightToeBase 0.663222 -0.000000 -0.000000
